<?xml version="1.0" encoding="UTF-8"?>
<svg xmlns="http://www.w3.org/2000/svg" xmlns:xlink="http://www.w3.org/1999/xlink" width="48pt" height="48pt" viewBox="0 0 48 48" version="1.1">
<g id="surface15981040">
<path style=" stroke:none;fill-rule:nonzero;fill:rgb(0%,48.235294%,100%);fill-opacity:1;" d="M 24 4 C 12.953125 4 4 12.953125 4 24 C 4 35.046875 12.953125 44 24 44 C 35.046875 44 44 35.046875 44 24 C 44 12.953125 35.046875 4 24 4 Z M 24 4 "/>
<path style=" stroke:none;fill-rule:nonzero;fill:rgb(100%,100%,100%);fill-opacity:1;" d="M 26.707031 29.300781 L 31.882812 29.300781 L 32.695312 24.042969 L 26.707031 24.042969 L 26.707031 21.167969 C 26.707031 18.984375 27.421875 17.046875 29.464844 17.046875 L 32.746094 17.046875 L 32.746094 12.460938 C 32.171875 12.382812 30.949219 12.210938 28.644531 12.210938 C 23.832031 12.210938 21.007812 14.753906 21.007812 20.546875 L 21.007812 24.042969 L 16.058594 24.042969 L 16.058594 29.300781 L 21.007812 29.300781 L 21.007812 43.753906 C 21.988281 43.898438 22.980469 44 24 44 C 24.921875 44 25.820312 43.914062 26.707031 43.796875 Z M 26.707031 29.300781 "/>
</g>
</svg>
