<?xml version="1.0" encoding="UTF-8"?>
<svg xmlns="http://www.w3.org/2000/svg" xmlns:xlink="http://www.w3.org/1999/xlink" width="48pt" height="48pt" viewBox="0 0 48 48" version="1.1">
<g id="surface16106516">
<path style=" stroke:none;fill-rule:nonzero;fill:rgb(0%,48.235294%,100%);fill-opacity:1;" d="M 24 4 C 12.953125 4 4 12.953125 4 24 C 4 35.046875 12.953125 44 24 44 C 35.046875 44 44 35.046875 44 24 C 44 12.953125 35.046875 4 24 4 Z M 24 4 "/>
<path style=" stroke:none;fill-rule:nonzero;fill:rgb(100%,100%,100%);fill-opacity:1;" d="M 36 17.121094 C 35.117188 17.511719 34 17.878906 33 18 C 34.019531 17.394531 35.632812 16.136719 36 15 C 35.050781 15.558594 33.328125 16.15625 32.207031 16.371094 C 31.3125 15.421875 30.03125 15 28.617188 15 C 25.898438 15 24 17.304688 24 20 L 24 22 C 20 22 16.101562 18.953125 13.671875 16 C 13.246094 16.722656 13.007812 17.566406 13.007812 18.457031 C 13.007812 20.277344 14.675781 22.121094 16 23 C 15.191406 22.976562 13.664062 22.359375 13 22 C 13 22.015625 13 22.035156 13 22.058594 C 13 24.425781 14.660156 26.03125 16.910156 26.480469 C 16.5 26.59375 16 27 14.070312 27 C 14.699219 28.933594 17.84375 29.957031 20 30 C 18.3125 31.308594 15.308594 32 13 32 C 12.601562 32 12.386719 32.023438 12 31.976562 C 14.179688 33.355469 17.21875 34 20 34 C 29.058594 34 34 27.082031 34 20.628906 C 34 20.417969 33.992188 19.707031 33.980469 19.5 C 34.949219 18.816406 35.34375 18.105469 36 17.121094 "/>
</g>
</svg>
